<svg xmlns="http://www.w3.org/2000/svg" viewBox="0 0 24 24" fill="none" stroke="currentColor" stroke-width="2" stroke-linecap="round" stroke-linejoin="round" xmlns:v="https://vecta.io/nano"><path d="M10.547 5.568c-.527-.025-1.004.369-1.039.903s.371.994.908.994c3.237.209 6.04 2.99 6.252 6.198.034.512.464.905.974.905l.064-.002a.97.97 0 0 0 .911-1.029c-.269-4.106-3.892-7.697-8.072-7.968zm.261-3.878c-.72 0-1.302.577-1.302 1.291s.583 1.291 1.302 1.291c5.027 0 9.117 4.055 9.117 9.038 0 .714.583 1.291 1.302 1.291s1.302-.577 1.302-1.291c0-6.408-5.259-11.621-11.722-11.621zm-2.104 9.151c-.594-.117-1.152.363-1.152.96v2.032c0 .414.29.741.682.851.738.272 1.272.984 1.272 1.779 0 1.069-.875 1.9-1.954 1.9s-1.954-.868-1.954-1.9V6.532c0-.535-.438-.932-.977-.932H2.666c-.538-.036-.976.399-.976.932v9.97c0 3.611 3.343 6.464 7.123 5.677 2.213-.464 4-2.239 4.469-4.426.708-3.309-1.506-6.307-4.579-6.912z" stroke-width="1"/></svg>