<?xml version="1.0" encoding="UTF-8" standalone="no"?>
<svg
        xmlns="http://www.w3.org/2000/svg"
        viewBox="0 0 24 24"
        fill="none"
        stroke="currentColor"
        stroke-width="2"
        stroke-linecap="round"
        stroke-linejoin="round"
        class="feather feather-blog"
        version="1.1"
        id="svg4"
>
    <title>blog</title>
    <path
            d="m 10.546972,5.5676426 c -0.527103,-0.025219 -1.0037345,0.3694443 -1.0387395,0.9026289 -0.03582,0.5338299 0.371211,0.9938195 0.9084915,0.9938195 3.237105,0.2093358 6.040317,2.989529 6.251972,6.197756 0.0337,0.512041 0.463607,0.905049 0.974429,0.905049 0.02099,0 0.04262,-0.0013 0.06423,-0.0025 0.538093,-0.03404 0.946343,-0.495498 0.911339,-1.028924 C 18.349729,9.4291361 14.727167,5.8379887 10.546973,5.567644 Z m 0.2605,-3.8776321 c -0.720442,0 -1.3024955,0.5774081 -1.3024955,1.291199 0,0.713791 0.5832745,1.291199 1.3024955,1.291199 5.026814,0 9.117461,4.0551721 9.117461,9.0383935 0,0.713791 0.583272,1.291199 1.302493,1.291199 0.719222,0 1.302495,-0.577408 1.302495,-1.291199 0,-6.4075755 -5.258822,-11.6207915 -11.722449,-11.6207915 z M 8.7031285,10.841383 c -0.594262,-0.117014 -1.151893,0.36315 -1.151893,0.96033 v 2.032428 c 0,0.413587 0.29009,0.741229 0.681774,0.851384 0.737944,0.272362 1.272374,0.983732 1.272374,1.779434 0,1.069274 -0.875113,1.900483 -1.954148,1.900483 -1.078628,0 -1.954149,-0.867524 -1.954149,-1.900483 V 6.5320067 c 0,-0.5346371 -0.437556,-0.9320842 -0.977278,-0.9320842 l -1.954148,3.057e-4 c -0.538093,-0.035815 -0.975649,0.3991583 -0.975649,0.9317777 v 9.9704781 c 0,3.611322 3.343339,6.464065 7.123015,5.677241 2.2134265,-0.464024 3.9998805,-2.239423 4.4691845,-4.426392 0.708231,-3.308698 -1.506009,-6.3067 -4.5790825,-6.91195 z"
            id="path2"
            style="stroke-width:1;stroke-miterlimit:4;stroke-dasharray:none"/>
</svg>
