<svg xmlns="http://www.w3.org/2000/svg" viewBox="0 0 50 50" width="50px" height="50px" fill="none" stroke="currentColor" stroke-width="2" stroke-linecap="round" stroke-linejoin="round" xmlns:v="https://vecta.io/nano"><path d="M44.377 5.986c-.487.021-.961.157-1.389.328l-6.457 2.748-12.91 5.527-18.383 7.881.066-.025s-.55.184-1.107.572c-.279.194-.579.445-.824.811s-.425.884-.357 1.432c.238 1.925 2.232 2.471 2.232 2.471l.008.004 8.902 3.047 3.244 10.76c.3.966.582 1.524.875 1.904a1.85 1.85 0 0 0 .471.445c.068.043.139.075.209.104.013.004.021.004.029.008l-.023-.006c.016.007.032.018.049.023.032.011.051.011.092.02 1.02.356 1.863-.305 1.863-.305l.035-.027 5.469-5.072 8.875 6.92.111.051c1.553.69 2.958.305 3.736-.328s1.084-1.449 1.084-1.449l.033-.086 6.521-33.99c.167-.76.191-1.418.033-2.012s-.54-1.11-1.02-1.396-.982-.379-1.469-.357zm.053 2.033c.198-.009.344.013.391.041s.067.024.111.191.068.52-.053 1.072l-.004.012-6.484 33.793c-.015.034-.15.347-.459.598-.315.256-.665.456-1.594.066l-9.705-7.568-.273-.215-.006.006-2.902-2.178 16.311-19.189a1 1 0 0 0-1.316-1.48L14.844 28.902 5.928 25.85s-.885-.493-.928-.836c-.002-.019-.013-.002.033-.07s.162-.184.307-.285c.29-.202.621-.324.621-.324l.033-.012.033-.014 18.383-7.881 12.908-5.525 6.414-2.732a2.18 2.18 0 0 1 .697-.15zM33.613 18.793L21.244 33.346l-.006.006a1 1 0 0 0-.109.156 1 1 0 0 0-.131.385 1 1 0 0 0 0 .008l-1.611 7.246-.074-.199v-.002l-3.168-10.506 17.469-11.646zM22.641 35.73l2.223 1.668-3.266 3.027 1.043-4.695z"/></svg>