<?xml version="1.0" encoding="UTF-8" standalone="no"?>
<svg
   inkscape:version="1.1 (c68e22c387, 2021-05-23)"
   sodipodi:docname="joplin-blog.svg"
   version="1.1"
   id="svg2"
   xml:space="preserve"
   width="682.66669"
   height="682.66669"
   viewBox="0 0 682.66669 682.66669"
   xmlns:inkscape="http://www.inkscape.org/namespaces/inkscape"
   xmlns:sodipodi="http://sodipodi.sourceforge.net/DTD/sodipodi-0.dtd"
   xmlns="http://www.w3.org/2000/svg"
   xmlns:svg="http://www.w3.org/2000/svg"
   xmlns:rdf="http://www.w3.org/1999/02/22-rdf-syntax-ns#"
   xmlns:cc="http://creativecommons.org/ns#"
   xmlns:dc="http://purl.org/dc/elements/1.1/"><title
   id="title842">Joplin Icon</title><metadata
   id="metadata15"><rdf:RDF><cc:Work
       rdf:about=""><dc:format>image/svg+xml</dc:format><dc:type
         rdf:resource="http://purl.org/dc/dcmitype/StillImage" /><dc:title>Joplin Icon</dc:title><cc:license
         rdf:resource="MIT -- https://github.com/laurent22/joplin/blob/master/LICENSE" /><dc:creator><cc:Agent><dc:title>Laurent Cozic</dc:title></cc:Agent></dc:creator></cc:Work></rdf:RDF></metadata><sodipodi:namedview
   inkscape:current-layer="svg2"
   inkscape:window-maximized="1"
   inkscape:window-y="-8"
   inkscape:window-x="-8"
   inkscape:cy="341.33333"
   inkscape:cx="341.67196"
   inkscape:zoom="1.4765625"
   showgrid="false"
   id="namedview13"
   inkscape:window-height="1417"
   inkscape:window-width="2498"
   inkscape:pageshadow="2"
   inkscape:pageopacity="0"
   guidetolerance="10"
   gridtolerance="10"
   objecttolerance="10"
   borderopacity="1"
   bordercolor="#666666"
   pagecolor="#ffffff"
   inkscape:pagecheckerboard="0" />
  <defs
   id="defs6">
    <linearGradient
   x1="0"
   y1="0"
   x2="1"
   y2="0"
   gradientUnits="userSpaceOnUse"
   gradientTransform="matrix(-4387.91,4387.91,4387.91,4387.91,4753.95,366.05)"
   spreadMethod="pad"
   id="linearGradient26">
      <stop
   style="stop-opacity:1;stop-color:#004caf"
   offset="0"
   id="stop22" />
      <stop
   style="stop-opacity:1;stop-color:#1f95f8"
   offset="1"
   id="stop24" />
    </linearGradient>
  </defs>
  <g
   id="g10"
   transform="matrix(1.3333333,0,0,-1.3333333,0,682.66667)">
    <g
   id="g12"
   transform="scale(0.1)">
      <g
   id="g14">
        <g
   id="g16"
   clip-path="url(#clipPath20)">
          <path
   d="M 3873.89,0 H 1246.11 C 560.754,0 0,560.75 0,1246.11 V 3873.88 C 0,4559.25 560.754,5120 1246.11,5120 H 3873.89 C 4559.25,5120 5120,4559.25 5120,3873.88 V 1246.11 C 5120,560.75 4559.25,0 3873.89,0"
   style="fill:url(#linearGradient26);fill-opacity:1;fill-rule:nonzero;stroke:none"
   id="path28" />
        </g>
      </g>
      <path
   d="M 3961.59,4435.23 H 2570.18 c -13.15,0 -23.78,-10.64 -23.78,-23.77 v -441.84 c 0,-14.87 12.04,-26.92 26.92,-26.92 h 190.77 c 77.16,0 139.73,-59.35 146.43,-134.77 V 3505 3336.23 1728.75 1717.36 h -0.05 c 0.48,-16.84 -0.19,-33.4 -1.83,-49.71 -0.18,-2.38 -0.5,-4.73 -0.79,-7.09 -1.1,-9.53 -2.32,-19.01 -4.17,-28.29 -1.01,-5.29 -2.44,-10.44 -3.71,-15.65 -1.71,-6.93 -3.09,-13.97 -5.22,-20.75 -12.58,-40.27 -32.47,-77.62 -59.98,-110.5 -1.01,-1.17 -2.26,-2.25 -3.26,-3.41 -8.39,-9.72 -17.2,-19.19 -26.95,-28.06 -9.84,-8.95 -20.26,-17.27 -31.21,-25 -77.84,-55.14 -182.61,-79.4 -299.67,-68.2 -149.26,14.03 -297.34,81.72 -417.03,190.62 -119.67,108.89 -194.08,243.62 -209.48,379.41 -13.85,121.48 22.55,228.38 102.42,301.05 0.21,0.16 0.4,0.31 0.56,0.48 3.09,2.77 6.49,5.2 9.67,7.87 57.16,47.89 131.67,76.91 216.7,84.91 0.96,0.09 1.88,0.24 2.79,0.32 8.95,0.79 18.07,1.15 27.27,1.49 4.81,0.16 9.56,0.5 14.44,0.54 1.62,0.02 3.16,0.19 4.78,0.19 2.9,0 5.91,-0.38 8.81,-0.42 13.4,-0.21 26.9,-0.76 40.67,-1.94 1.74,-0.14 3.4,-0.08 5.19,-0.24 1.27,-0.13 2.53,-0.41 3.8,-0.54 78,-7.82 155.23,-31.11 228.52,-66.4 1.53,-0.07 3.3,-0.54 5.51,-1.76 22.34,-12.34 26.62,0.9 27.28,9.65 v 382.24 282.82 c 0,19.05 -13.25,35.9 -31.83,39.99 -394.76,86.88 -782.08,-3.55 -1055.38,-252.34 -238.75,-217.18 -354.24,-530.58 -316.82,-859.79 33.39,-293.23 183.91,-574.94 423.88,-793.33 233.89,-212.79 531.69,-345.86 838.88,-374.801 42.33,-3.918 84.86,-5.938 126.36,-5.938 293.38,0 565.61,100.598 766.54,283.379 190.34,173.3 304.35,411.27 321.08,670.16 l 1.55,1697.91 h 0.17 v 453.97 h 0.06 v 7.92 c 1.72,80.12 67.05,144.58 147.61,144.58 h 190.77 c 14.86,0 26.92,12.05 26.92,26.92 v 441.84 c 0,13.13 -10.63,23.77 -23.78,23.77"
   style="fill:#ffffff;fill-opacity:1;fill-rule:nonzero;stroke:none"
   id="path30" />
    </g>
  </g>
<g
   id="g901"
   transform="translate(752.93122,312.04233)"><path
     fill="url(#gPWjxlu7lDdzZroFFR7GZa)"
     d="M 50,55 H 14 C 11.243,55 9,52.757 9,50 V 14 c 0,-2.757 2.243,-5 5,-5 h 36 c 2.757,0 5,2.243 5,5 v 36 c 0,2.757 -2.243,5 -5,5 z M 14,11 c -1.654,0 -3,1.346 -3,3 v 36 c 0,1.654 1.346,3 3,3 h 36 c 1.654,0 3,-1.346 3,-3 V 14 c 0,-1.654 -1.346,-3 -3,-3 z"
     id="path884" /><path
     fill="url(#gPWjxlu7lDdzZroFFR7GZb)"
     d="m 43,29 h -1 c -1.11,0 -2,-0.9 -2,-2 0,-4.4 -3.6,-8 -8,-8 h -5 c -4.4,0 -8,3.6 -8,8 v 10 c 0,4.4 3.6,8 8,8 h 10 c 4.4,0 8,-3.6 8,-8 v -6 c 0,-1.1 -0.9,-2 -2,-2 z M 27,25 h 5 c 1.1,0 2,0.9 2,2 0,1.1 -0.9,2 -2,2 h -5 c -1.1,0 -2,-0.9 -2,-2 0,-1.1 0.9,-2 2,-2 z M 37,39 H 27 c -1.1,0 -2,-0.9 -2,-2 0,-1.1 0.9,-2 2,-2 h 10 c 1.1,0 2,0.9 2,2 0,1.1 -0.9,2 -2,2 z"
     id="path891" /></g><g
   id="g944"
   transform="matrix(1.149492,0,0,1.149492,521.09421,365.84656)"><g
     id="g935"><g
       id="g933"><g
         id="g931"><circle
           cx="68"
           cy="67.549004"
           fill="#ed7826"
           r="63.333"
           id="circle929" /></g></g></g><path
     d="m 112.966,22.947 c 24.733,24.733 24.735,64.832 0,89.567 -24.732,24.732 -64.834,24.733 -89.568,0 z"
     fill="#db6d27"
     id="path937" /><g
     id="g941"><path
       d="M 129.092,84.246 83.659,38.813 74.403,48.07 49,44.5 54.236,68.235 35.98,86.491 l 6.417,6.417 -1.583,1.583 35.793,35.794 c 25.331,-3.444 45.89,-21.855 52.485,-46.039 z"
       fill="#ce6028"
       id="path939" /></g><path
     d="m 81.132,101.086 c 11.856,0 21.488,-9.658 21.554,-21.449 l 0.133,-17.361 -0.199,-0.945 -0.57,-1.188 -0.964,-0.746 c -1.251,-0.98 -7.591,0.066 -9.298,-1.483 -1.21,-1.106 -1.399,-3.105 -1.767,-5.813 C 89.34,46.855 88.912,46.581 88.09,44.804 85.104,38.488 77.006,33.742 71.441,33.087 H 56.37 c -11.858,0 -21.551,9.673 -21.551,21.486 v 25.064 c 0,11.791 9.693,21.449 21.551,21.449 z M 56.644,50.639 h 11.949 c 2.282,0 4.13,1.852 4.13,4.103 0,2.242 -1.848,4.11 -4.13,4.11 H 56.644 c -2.281,0 -4.125,-1.868 -4.125,-4.11 0,-2.252 1.844,-4.103 4.125,-4.103 z m -4.125,28.679 c 0,-2.25 1.844,-4.087 4.125,-4.087 h 24.28 c 2.267,0 4.107,1.837 4.107,4.087 0,2.222 -1.84,4.088 -4.107,4.088 h -24.28 c -2.281,0 -4.125,-1.866 -4.125,-4.088 z"
     fill="#ffffff"
     id="Blogger_3_" /></g><g
   id="g1150"
   transform="matrix(0.35582,0,0,0.35582,448.67718,511.66146)"><path
     style="fill:#e4eaf8"
     d="M 367.171,427.026 H 25.119 c -9.446,0 -17.103,-7.657 -17.103,-17.103 V 119.179 c 0,-9.446 7.657,-17.103 17.103,-17.103 h 342.052 c 9.446,0 17.103,7.657 17.103,17.103 v 290.744 c 0,9.446 -7.658,17.103 -17.103,17.103 z"
     id="path1040" /><path
     style="fill:#d5dced"
     d="M 367.171,102.077 H 42.222 v 34.205 h 342.052 v -17.103 c 0,-9.444 -7.658,-17.102 -17.103,-17.102 z"
     id="path1042" /><rect
     x="315.86301"
     y="102.081"
     style="fill:#fff082"
     width="34.205002"
     height="34.205002"
     id="rect1044" /><rect
     x="281.65799"
     y="102.081"
     style="fill:#ff5050"
     width="34.205002"
     height="34.205002"
     id="rect1046" /><path
     style="fill:#a0ffb4"
     d="m 384.274,136.282 h -34.205 v -34.205 h 17.103 c 9.446,0 17.103,7.657 17.103,17.103 v 17.102 z"
     id="path1048" /><path
     style="fill:#d5dced"
     d="m 384.274,212.634 -123.385,123.384 -21.927,46.986 c -2.717,5.823 3.322,11.864 9.146,9.146 l 46.986,-21.928 89.179,-89.179 v -68.409 z"
     id="path1050" /><path
     style="fill:#5b5d6e"
     d="m 213.248,375.718 58.674,-27.381 c 3.613,-1.686 6.903,-3.99 9.722,-6.809 L 501.487,121.685 c 3.339,-3.339 3.339,-8.754 0,-12.094 L 479.375,87.478 c -3.339,-3.339 -8.753,-3.339 -12.094,0 L 247.438,307.322 c -2.819,2.819 -5.123,6.109 -6.809,9.722 z"
     id="path1052" /><polygon
     style="fill:#464655"
     points="277.382,345.789 481.88,141.291 464.778,124.188 213.248,375.718 "
     id="polygon1054" /><g
     id="g1060">
	<polygon
   style="fill:#7f8499"
   points="247.453,307.308 243.177,311.583 213.248,375.717 277.382,345.789 281.658,341.513 "
   id="polygon1056" />
	<path
   style="fill:#7f8499"
   d="m 479.375,87.48 c -3.34,-3.34 -8.753,-3.34 -12.094,0 l -19.607,19.607 34.205,34.205 19.607,-19.607 c 3.34,-3.34 3.34,-8.754 0,-12.094 z"
   id="path1058" />
</g><g
     id="g1066">
	<path
   style="fill:#707487"
   d="m 501.486,109.591 -11.056,-11.055 -25.654,25.654 17.103,17.103 19.607,-19.607 c 3.341,-3.341 3.341,-8.755 0,-12.095 z"
   id="path1062" />
	<polygon
   style="fill:#707487"
   points="264.556,324.41 213.25,375.717 277.382,345.789 281.658,341.513 "
   id="polygon1064" />
</g><path
     d="M 507.156,103.923 485.044,81.81 c -3.13,-3.13 -7.29,-4.853 -11.715,-4.853 -4.425,0 -8.587,1.723 -11.715,4.853 l -19.605,19.605 c -0.001,0 -0.002,10e-4 -0.002,0.002 -0.001,0.001 -0.001,0.002 -0.002,0.003 l -49.714,49.713 v -31.954 c 0,-13.851 -11.268,-25.119 -25.119,-25.119 H 25.119 C 11.268,94.06 0,105.329 0,119.179 v 290.744 c 0,13.851 11.268,25.119 25.119,25.119 h 342.052 c 13.851,0 25.119,-11.268 25.119,-25.119 V 242.219 L 507.155,127.354 c 6.46,-6.461 6.46,-16.972 0.001,-23.431 z m -225.498,226.253 -22.867,-22.868 188.884,-188.884 22.867,22.868 z m -33.335,-10.66 21.128,21.128 -39.615,18.487 z M 376.257,119.179 v 9.086 h -18.171 v -18.171 h 9.086 c 5.009,0 9.085,4.075 9.085,9.085 z m -52.377,9.086 v -18.171 h 18.172 v 18.171 z m -34.205,0 v -18.171 h 18.172 v 18.171 z m -239.436,0 v -18.171 h 223.402 v 18.171 z m -25.12,-18.171 h 9.086 v 18.171 H 16.034 v -9.086 c 0,-5.01 4.075,-9.085 9.085,-9.085 z m 351.138,299.829 c 0,5.01 -4.076,9.086 -9.086,9.086 H 25.119 c -5.01,0 -9.086,-4.076 -9.086,-9.086 V 144.299 h 360.223 v 22.868 L 237.509,305.915 c -0.661,0.661 -1.201,1.431 -1.596,2.278 l -29.93,64.135 c -1.425,3.055 -0.788,6.675 1.596,9.059 1.537,1.537 3.588,2.348 5.671,2.348 1.147,0 2.304,-0.246 3.387,-0.753 l 64.135,-29.93 c 0.847,-0.396 1.618,-0.935 2.279,-1.596 l 93.206,-93.205 z M 495.819,116.015 481.88,129.954 459.013,107.086 472.952,93.147 c 0.038,-0.038 0.156,-0.156 0.377,-0.156 0.221,0 0.339,0.118 0.378,0.156 l 22.112,22.111 c 0.207,0.209 0.207,0.549 0,0.757 z"
     id="path1068" /><path
     d="m 187.594,179.573 h -8.672 c -0.016,0 -0.032,0 -0.047,0 h -8.383 c -4.427,0 -8.017,3.589 -8.017,8.017 0,3.348 2.053,6.214 4.968,7.414 l -22.605,56.513 -22.364,-55.91 h 5.261 c 4.427,0 8.017,-3.589 8.017,-8.017 0,-4.428 -3.589,-8.017 -8.017,-8.017 h -17.103 c -2.661,0 -5.147,1.319 -6.638,3.522 -1.492,2.204 -1.793,5.003 -0.805,7.472 l 7.361,18.401 -17.02,42.549 -22.364,-55.91 h 5.261 c 4.427,0 8.017,-3.589 8.017,-8.017 0,-4.428 -3.589,-8.017 -8.017,-8.017 H 59.325 c -2.661,0 -5.147,1.319 -6.638,3.522 -1.492,2.204 -1.793,5.003 -0.805,7.472 l 34.205,85.513 c 1.217,3.044 4.164,5.04 7.443,5.04 3.279,0 6.226,-1.996 7.443,-5.04 l 18.211,-45.526 18.211,45.526 c 1.217,3.044 4.164,5.04 7.443,5.04 3.279,0 6.226,-1.996 7.443,-5.04 l 32.189,-80.473 h 3.123 c 4.427,0 8.017,-3.589 8.017,-8.017 0,-4.428 -3.589,-8.017 -8.016,-8.017 z"
     id="path1070" /><path
     d="M 179.043,316.394 H 59.325 c -4.427,0 -8.017,3.589 -8.017,8.017 0,4.428 3.589,8.017 8.017,8.017 h 119.718 c 4.427,0 8.017,-3.589 8.017,-8.017 0,-4.428 -3.59,-8.017 -8.017,-8.017 z"
     id="path1072" /><path
     d="m 230.35,195.607 h 85.513 c 4.427,0 8.017,-3.589 8.017,-8.017 0,-4.428 -3.589,-8.017 -8.017,-8.017 H 230.35 c -4.427,0 -8.017,3.589 -8.017,8.017 0,4.428 3.59,8.017 8.017,8.017 z"
     id="path1074" /><path
     d="m 230.35,229.812 h 51.308 c 4.427,0 8.017,-3.589 8.017,-8.017 0,-4.428 -3.589,-8.017 -8.017,-8.017 H 230.35 c -4.427,0 -8.017,3.589 -8.017,8.017 0,4.428 3.59,8.017 8.017,8.017 z"
     id="path1076" /><path
     d="M 144.837,350.599 H 59.325 c -4.427,0 -8.017,3.589 -8.017,8.017 0,4.428 3.589,8.017 8.017,8.017 h 85.513 c 4.427,0 8.017,-3.589 8.017,-8.017 0,-4.428 -3.59,-8.017 -8.018,-8.017 z"
     id="path1078" /><g
     id="g1080">
</g><g
     id="g1082">
</g><g
     id="g1084">
</g><g
     id="g1086">
</g><g
     id="g1088">
</g><g
     id="g1090">
</g><g
     id="g1092">
</g><g
     id="g1094">
</g><g
     id="g1096">
</g><g
     id="g1098">
</g><g
     id="g1100">
</g><g
     id="g1102">
</g><g
     id="g1104">
</g><g
     id="g1106">
</g><g
     id="g1108">
</g></g></svg>
