<?xml version="1.0" encoding="UTF-8" standalone="no"?>
<svg
   inkscape:version="1.1 (c68e22c387, 2021-05-23)"
   sodipodi:docname="joplin - 副本.svg"
   version="1.1"
   id="svg2"
   xml:space="preserve"
   width="682.66669"
   height="682.66669"
   viewBox="0 0 682.66669 682.66669"
   xmlns:inkscape="http://www.inkscape.org/namespaces/inkscape"
   xmlns:sodipodi="http://sodipodi.sourceforge.net/DTD/sodipodi-0.dtd"
   xmlns="http://www.w3.org/2000/svg"
   xmlns:svg="http://www.w3.org/2000/svg"
   xmlns:rdf="http://www.w3.org/1999/02/22-rdf-syntax-ns#"
   xmlns:cc="http://creativecommons.org/ns#"
   xmlns:dc="http://purl.org/dc/elements/1.1/"><title
   id="title842">Joplin Icon</title><metadata
   id="metadata15"><rdf:RDF><cc:Work
       rdf:about=""><dc:format>image/svg+xml</dc:format><dc:type
         rdf:resource="http://purl.org/dc/dcmitype/StillImage" /><dc:title>Joplin Icon</dc:title><cc:license
         rdf:resource="MIT -- https://github.com/laurent22/joplin/blob/master/LICENSE" /><dc:creator><cc:Agent><dc:title>Laurent Cozic</dc:title></cc:Agent></dc:creator></cc:Work></rdf:RDF></metadata><sodipodi:namedview
   inkscape:current-layer="svg2"
   inkscape:window-maximized="1"
   inkscape:window-y="-8"
   inkscape:window-x="-8"
   inkscape:cy="341.33333"
   inkscape:cx="341.67196"
   inkscape:zoom="1.4765625"
   showgrid="false"
   id="namedview13"
   inkscape:window-height="1417"
   inkscape:window-width="2498"
   inkscape:pageshadow="2"
   inkscape:pageopacity="0"
   guidetolerance="10"
   gridtolerance="10"
   objecttolerance="10"
   borderopacity="1"
   bordercolor="#666666"
   pagecolor="#ffffff"
   inkscape:pagecheckerboard="0" />
  <defs
   id="defs6">
    <linearGradient
   x1="0"
   y1="0"
   x2="1"
   y2="0"
   gradientUnits="userSpaceOnUse"
   gradientTransform="matrix(-4387.91,4387.91,4387.91,4387.91,4753.95,366.05)"
   spreadMethod="pad"
   id="linearGradient26">
      <stop
   style="stop-opacity:1;stop-color:#004caf"
   offset="0"
   id="stop22" />
      <stop
   style="stop-opacity:1;stop-color:#1f95f8"
   offset="1"
   id="stop24" />
    </linearGradient>
  </defs>
  <g
   id="g10"
   transform="matrix(1.3333333,0,0,-1.3333333,0,682.66667)">
    <g
   id="g12"
   transform="scale(0.1)">
      <g
   id="g14">
        <g
   id="g16"
   clip-path="url(#clipPath20)">
          <path
   d="M 3873.89,0 H 1246.11 C 560.754,0 0,560.75 0,1246.11 V 3873.88 C 0,4559.25 560.754,5120 1246.11,5120 H 3873.89 C 4559.25,5120 5120,4559.25 5120,3873.88 V 1246.11 C 5120,560.75 4559.25,0 3873.89,0"
   style="fill:url(#linearGradient26);fill-opacity:1;fill-rule:nonzero;stroke:none"
   id="path28" />
        </g>
      </g>
      <path
   d="M 3961.59,4435.23 H 2570.18 c -13.15,0 -23.78,-10.64 -23.78,-23.77 v -441.84 c 0,-14.87 12.04,-26.92 26.92,-26.92 h 190.77 c 77.16,0 139.73,-59.35 146.43,-134.77 V 3505 3336.23 1728.75 1717.36 h -0.05 c 0.48,-16.84 -0.19,-33.4 -1.83,-49.71 -0.18,-2.38 -0.5,-4.73 -0.79,-7.09 -1.1,-9.53 -2.32,-19.01 -4.17,-28.29 -1.01,-5.29 -2.44,-10.44 -3.71,-15.65 -1.71,-6.93 -3.09,-13.97 -5.22,-20.75 -12.58,-40.27 -32.47,-77.62 -59.98,-110.5 -1.01,-1.17 -2.26,-2.25 -3.26,-3.41 -8.39,-9.72 -17.2,-19.19 -26.95,-28.06 -9.84,-8.95 -20.26,-17.27 -31.21,-25 -77.84,-55.14 -182.61,-79.4 -299.67,-68.2 -149.26,14.03 -297.34,81.72 -417.03,190.62 -119.67,108.89 -194.08,243.62 -209.48,379.41 -13.85,121.48 22.55,228.38 102.42,301.05 0.21,0.16 0.4,0.31 0.56,0.48 3.09,2.77 6.49,5.2 9.67,7.87 57.16,47.89 131.67,76.91 216.7,84.91 0.96,0.09 1.88,0.24 2.79,0.32 8.95,0.79 18.07,1.15 27.27,1.49 4.81,0.16 9.56,0.5 14.44,0.54 1.62,0.02 3.16,0.19 4.78,0.19 2.9,0 5.91,-0.38 8.81,-0.42 13.4,-0.21 26.9,-0.76 40.67,-1.94 1.74,-0.14 3.4,-0.08 5.19,-0.24 1.27,-0.13 2.53,-0.41 3.8,-0.54 78,-7.82 155.23,-31.11 228.52,-66.4 1.53,-0.07 3.3,-0.54 5.51,-1.76 22.34,-12.34 26.62,0.9 27.28,9.65 v 382.24 282.82 c 0,19.05 -13.25,35.9 -31.83,39.99 -394.76,86.88 -782.08,-3.55 -1055.38,-252.34 -238.75,-217.18 -354.24,-530.58 -316.82,-859.79 33.39,-293.23 183.91,-574.94 423.88,-793.33 233.89,-212.79 531.69,-345.86 838.88,-374.801 42.33,-3.918 84.86,-5.938 126.36,-5.938 293.38,0 565.61,100.598 766.54,283.379 190.34,173.3 304.35,411.27 321.08,670.16 l 1.55,1697.91 h 0.17 v 453.97 h 0.06 v 7.92 c 1.72,80.12 67.05,144.58 147.61,144.58 h 190.77 c 14.86,0 26.92,12.05 26.92,26.92 v 441.84 c 0,13.13 -10.63,23.77 -23.78,23.77"
   style="fill:#ffffff;fill-opacity:1;fill-rule:nonzero;stroke:none"
   id="path30" />
    </g>
  </g><g
   id="g53"
   transform="matrix(0.35449966,0,0,0.34740968,490.19256,572.40765)"><path
     d="m 255.878,133.451 c 0,-10.734 -0.871,-18.567 -2.756,-26.69 H 130.55 v 48.448 h 71.947 c -1.45,12.04 -9.283,30.172 -26.69,42.356 l -0.244,1.622 38.755,30.023 2.685,0.268 c 24.659,-22.774 38.875,-56.282 38.875,-96.027"
     fill="#4285f4"
     id="path33" /><path
     d="m 130.55,261.1 c 35.248,0 64.839,-11.605 86.453,-31.622 l -41.196,-31.913 c -11.024,7.688 -25.82,13.055 -45.257,13.055 -34.523,0 -63.824,-22.773 -74.269,-54.25 l -1.531,0.13 -40.298,31.187 -0.527,1.465 C 35.393,231.798 79.49,261.1 130.55,261.1"
     fill="#34a853"
     id="path35" /><path
     d="m 56.281,156.37 c -2.756,-8.123 -4.351,-16.827 -4.351,-25.82 0,-8.994 1.595,-17.697 4.206,-25.82 L 56.063,103 15.26,71.312 13.925,71.947 C 5.077,89.644 0,109.517 0,130.55 c 0,21.033 5.077,40.905 13.925,58.602 L 56.281,156.37"
     fill="#fbbc05"
     id="path37" /><path
     d="m 130.55,50.479 c 24.514,0 41.05,10.589 50.479,19.438 L 217.873,33.943 C 195.245,12.91 165.798,0 130.55,0 79.49,0 35.393,29.301 13.925,71.947 L 56.136,104.73 C 66.726,73.253 96.027,50.479 130.55,50.479"
     fill="#eb4335"
     id="path39" /></g><path
   d="m 574.55264,479.04549 11.55851,20.0321 17.0496,6.15156 -61.53928,25.89253 25.22547,-17.95733 V 461.9011 l -25.96876,-6.36998 v 76.24574 l 25.81709,14.46293 64.89158,-30.93997 v -22.2889 z"
   fill="#00897b"
   id="path55"
   style="stroke-width:0.135664" /><path
   d="m 559.772,378.88378 c 10.74377,-2.12115 9.2806,-13.90605 8.95756,-16.48422 -0.52445,-3.97368 -5.6132,-10.91275 -12.52615,-10.36502 -8.69537,0.71517 -9.96472,12.24541 -9.96472,12.24541 -1.1743,5.3308 2.81231,16.72146 13.53331,14.60383 z m 11.40885,20.49626 c -0.31559,0.83033 -1.01851,2.95147 -0.40664,4.79698 1.19713,4.14112 5.11536,4.32605 5.11536,4.32605 h 5.62462 v -12.6257 h -6.02366 c -2.70973,0.74309 -4.01707,2.67583 -4.30968,3.50267 z m 8.53194,-40.26338 c 5.93624,0 10.72857,-6.26925 10.72857,-14.02122 0,-7.74497 -4.79615,-14.0107 -10.72857,-14.0107 -5.92486,0 -10.73238,6.26573 -10.73238,14.0107 0,7.75197 4.80752,14.02122 10.73238,14.02122 z m 25.55399,0.92451 c 7.93149,0.94545 13.03163,-6.82397 14.04254,-12.71293 1.03373,-5.882 -4.08163,-12.7129 -9.69865,-13.88512 -5.62462,-1.18269 -12.65159,7.08907 -13.29007,12.48265 -0.7601,6.59369 1.02992,13.18042 8.94618,14.1154 z m 19.43535,34.61862 c 0,0 -12.27155,-8.71483 -19.43153,-18.1344 -9.7101,-13.88863 -23.5056,-8.23687 -28.11931,-1.1757 -4.59469,7.06118 -11.75467,11.53025 -12.7694,12.71294 -1.02992,1.16522 -14.82164,7.99963 -11.7623,20.48228 3.06315,12.47569 13.81451,12.23845 13.81451,12.23845 0,0 7.9239,0.7152 17.1171,-1.17219 9.19699,-1.87347 17.11329,0.46749 17.11329,0.46749 0,0 21.47996,6.60416 27.35921,-6.10877 5.87164,-12.71641 -3.32157,-19.3101 -3.32157,-19.3101 z m -36.75386,18.91937 h -13.96653 c -6.03125,-1.10245 -8.43311,-4.88424 -8.73717,-5.52616 -0.29631,-0.65586 -2.00659,-3.69456 -1.10211,-8.85785 2.60708,-7.74149 10.04069,-8.29969 10.04069,-8.29969 h 7.43365 v -8.38689 l 6.33147,0.0873 z m 26.01007,-0.0873 h -16.07195 c -6.22889,-1.47571 -6.52154,-5.53659 -6.52154,-5.53659 v -16.31678 l 6.52154,-0.0941 v 14.6631 c 0.39522,1.55947 2.51206,1.84554 2.51206,1.84554 h 6.62033 v -16.41445 h 6.93578 v 21.85338 z m 22.74931,-43.56022 c 0,-2.81889 -2.55008,-11.3 -12.00552,-11.3 -9.47066,0 -10.7362,8.00663 -10.7362,13.66534 0,5.40057 0.49788,12.94318 12.26397,12.70246 11.76608,-0.23735 10.47775,-12.23497 10.47775,-15.0678 z"
   id="path66"
   style="stroke-width:3.64124" />
</svg>
